<svg xmlns="http://www.w3.org/2000/svg" viewBox="0 0 110 135" width="110" height="135"><style></style><path d="m79.5 55.3c-1.1-9.3-5.3-16.7-12-21.4-7-4.7-15.7-6.4-23.9-4.6l-0.2-5.1c0-0.5-0.3-1-0.8-1.1-0.5-0.2-1.1 0-1.4 0.4l-14 17.9c-0.2 0.3-0.3 0.8-0.1 1.2 0.1 0.4 0.5 0.7 0.9 0.8l16.4 2.8c0.4 0.1 0.9-0.1 1.1-0.4 0.3-0.3 0.4-0.7 0.3-1.1l-1.7-6.4q2.6-1 5.4-1.6c3.9-0.8 7.9-0.4 11.6 1.1 6 2.7 10.2 8.9 12.5 18.5-1.6 0.6-3.2 1.5-4.6 2.5l-2.1-0.3q-0.5-1.7-1.4-3.3l2.4-3c0.3-0.5 0.3-1.2-0.2-1.6l-3.6-3.7c-0.4-0.4-1.1-0.5-1.6-0.1l-3.1 2.3q-1.6-0.9-3.3-1.4l-0.5-3.8c-0.1-0.6-0.6-1-1.2-1h-5.2c-0.6 0-1.1 0.4-1.2 1l-0.5 3.8q-1.7 0.5-3.3 1.4l-3.1-2.3c-0.5-0.4-1.2-0.3-1.6 0.1l-3.6 3.7c-0.5 0.4-0.5 1.1-0.1 1.6l2 2.7q0.1 0.1 0.1 0.1l-0.3 2.1h0.1q-1.8 0.5-3.3 1.4l-3.1-2.4c-0.5-0.3-1.2-0.3-1.6 0.2l-3.7 3.6c-0.4 0.4-0.4 1.1-0.1 1.6l2.3 3.1q-0.8 1.5-1.3 3.3l-3.8 0.5c-0.6 0.1-1.1 0.6-1.1 1.2v5.2c0 0.6 0.5 1.1 1.1 1.2l3.8 0.5q0.5 1.7 1.3 3.3l-2.3 3.1c-0.3 0.5-0.3 1.2 0.1 1.6l3.7 3.6c0.4 0.5 1.1 0.5 1.6 0.1l3.1-2.3q1.5 0.9 3.3 1.4l0.5 3.8c0.1 0.6 0.6 1.1 1.2 1.1h5.2c0.6 0 1.1-0.5 1.2-1.1l0.5-3.8q1.7-0.5 3.3-1.4l3 2.3c0.5 0.4 1.2 0.4 1.7-0.1l3.6-3.6c0.4-0.4 0.5-1.1 0.1-1.6l-2.2-2.9 0.3-2.1q1.8-0.4 3.3-1.3l3.1 2.3q0.3 0.3 0.8 0.2c1.5 4 4.5 7.2 8.2 9.2 3.8 1.9 8.2 2.4 12.3 1.3 4.1-1 7.7-3.5 10.1-7 2.4-3.5 3.4-7.8 2.9-12-0.6-4.2-2.6-8.1-5.8-10.9-3.1-2.8-7.2-4.4-11.5-4.4zm0 32.4c-6.1 0-11.5-3.6-13.9-9.2-2.3-5.6-1-12.1 3.3-16.3 4.3-4.3 10.7-5.6 16.3-3.3 5.6 2.3 9.2 7.8 9.2 13.8 0 8.3-6.7 15-14.9 15zm10.2-22.5c-1.4-1.4-3.6-1.4-5 0l-7.5 7.5-2.9-3c-1.4-1.3-3.7-1.3-5.1 0.1-1.4 1.4-1.4 3.6 0 5l5.5 5.5c1.4 1.3 3.6 1.3 5 0l10-10c1.4-1.4 1.4-3.7 0-5.1zm-27.6-29.6c-4.1-1.8-8.7-2.2-13.1-1.3-2.4 0.4-4.7 1.2-7 2.3-0.4 0.3-0.7 0.9-0.5 1.4l1.4 5.5-12.5-2.2 10.7-13.6v3.1c0 0.4 0.2 0.8 0.5 1 0.3 0.2 0.7 0.3 1.1 0.2 8-2.1 16.5-0.7 23.4 3.9 6.1 4.2 9.9 11 11 19.6q-0.6 0.1-1.1 0.2c-2.5-10.4-7.2-17.1-13.9-20.1zm-8.8 50l-2.9-2.1c-0.4-0.3-0.9-0.4-1.4-0.1q-1.9 1.2-4.1 1.7c-0.5 0.1-0.9 0.5-0.9 1.1l-0.5 3.5h-3l-0.5-3.6v0.1c-0.1-0.6-0.5-1-1-1.1-1.4-0.3-2.8-0.9-4.1-1.7-0.4-0.3-1-0.2-1.4 0.1l-2.8 2.1-2.2-2.1 2.2-2.8c0.3-0.5 0.3-1 0.1-1.4-0.8-1.3-1.4-2.7-1.7-4.2-0.2-0.5-0.6-0.8-1.1-0.9l-3.5-0.5v-3l3.5-0.5c0.5-0.1 0.9-0.4 1.1-0.9q0.5-2.2 1.7-4.1c0.2-0.5 0.2-1-0.1-1.4l-2.2-2.9 2.2-2.1 2.8 2.1c0.4 0.3 1 0.4 1.4 0.1q1.9-1.2 4.1-1.7c0.5-0.1 0.9-0.5 1-1l0.5-3.6h3l0.5 3.6c0 0.5 0.4 0.9 0.9 1q2.2 0.5 4.1 1.7c0.4 0.3 1 0.2 1.4-0.1l2.9-2.1 2.1 2.1-2.2 2.9c-0.3 0.4-0.3 0.9 0 1.4q1.2 1.9 1.7 4.1 0 0.1 0.1 0.3c-1 0.4-2.1 0.7-3.2 0.7h-0.1c-0.8-4.2-4.2-7.3-8.4-7.9-2.9-0.4-5.8 0.5-8 2.5q-0.1 0.1-0.2 0.1c-3.8 3.6-4.1 9.6-0.8 13.6 3.4 4 9.3 4.7 13.5 1.6l0.2 1.5c0.1 0.7 0.6 1.1 1.2 1.1h5.2q0.2 0 0.4-0.1l0.6 0.8zm7-11.5c-0.4-0.3-1-0.3-1.4-0.1-1.3 0.8-2.7 1.4-4.1 1.7-0.5 0.1-0.9 0.6-1 1.1l-0.5 3.5h-3l-0.5-3.5c0-0.5-0.4-1-0.9-1.1q-2.2-0.5-4.1-1.7c-0.5-0.2-1-0.2-1.4 0.1l-2.9 2.2-2.1-2.2 2.2-2.8c0.3-0.4 0.3-1 0-1.4-0.8-1.3-1.4-2.7-1.7-4.1q0-0.2-0.1-0.3c1-0.5 2.1-0.8 3.2-0.8h0.1c0.8 4.2 4.2 7.3 8.4 7.9 2.9 0.4 5.8-0.5 8-2.4q0.1-0.1 0.2-0.2c3.7-3.6 4.1-9.5 0.7-13.5-3.3-4-9.2-4.8-13.4-1.7l-0.2-1.5c-0.1-0.6-0.6-1.1-1.2-1.1h-5.2q-0.2 0-0.4 0.1l-0.6-0.8 2.1-2.1 2.9 2.1c0.4 0.4 0.9 0.4 1.4 0.1q1.9-1.2 4.1-1.7c0.5-0.1 0.9-0.5 0.9-1l0.5-3.6h3l0.5 3.6c0.1 0.5 0.5 0.9 1 1 1.4 0.3 2.8 0.9 4.1 1.7 0.4 0.3 1 0.3 1.4-0.1l2.8-2.1 2.2 2.1-2.2 2.9c-0.3 0.4-0.3 0.9-0.1 1.4q1.2 1.9 1.7 4.1c0.2 0.5 0.6 0.8 1.1 0.9l0.8 0.1c-3.6 4-5.2 9.4-4.3 14.7zm5.6 17.2l-16.4-2.8c-0.4-0.1-0.8 0-1.1 0.3-0.3 0.4-0.4 0.8-0.3 1.2l1.7 6.3q-2.9 1.3-6 1.7c-4.3 0.9-8.7 0.2-12.5-1.9-3.8-2.2-6.8-6-8.9-11.2-2.7-6.5-4-15.2-4-26.1 0-0.6-0.5-1.1-1.1-1.2-0.7-0.1-1.2 0.4-1.4 1-5 22 1.1 33.6 7.2 39.5 8.2 7.9 19.5 8.9 27.3 7.3l0.1 5.1c0 0.5 0.4 0.9 0.9 1.1 0.4 0.2 1 0 1.3-0.4l14-17.9c0.3-0.4 0.3-0.8 0.2-1.2-0.2-0.4-0.5-0.7-1-0.8zm-30-16.1l3.7 3.6c0.4 0.4 1.1 0.5 1.6 0.1l3-2.3q1.3 0.7 2.8 1.2c-3 2.6-7.5 2.5-10.3-0.4-2.8-2.8-2.8-7.3-0.1-10.2h0.2q0.5 1.7 1.3 3.3l-2.3 3c-0.4 0.5-0.3 1.2 0.1 1.7zm21.4-7.3h-0.2q-0.5-1.7-1.3-3.3l2.3-3.1c0.4-0.5 0.3-1.1-0.1-1.6l-3.7-3.6c-0.4-0.5-1.1-0.5-1.6-0.1l-3 2.3q-1.3-0.7-2.8-1.2c3-2.6 7.5-2.5 10.3 0.4 2.8 2.8 2.8 7.3 0.1 10.2zm30.7 0.6l-10 10c-0.4 0.5-1.1 0.5-1.5 0l-5.5-5.4c-0.4-0.5-0.4-1.2 0-1.6 0.4-0.4 1.2-0.4 1.6 0l3.8 3.8c0.5 0.5 1.3 0.5 1.7 0l8.4-8.3c0.3-0.3 0.8-0.4 1.2-0.3 0.4 0.2 0.7 0.6 0.7 1 0 0.3-0.2 0.6-0.4 0.8zm-39 1.2c-1.9-0.8-3.4-2.4-4.1-4.4 1.9 0.9 3.4 2.4 4.1 4.4zm3.9 37.3l-0.1-3.2c0-0.6-0.6-1.2-1.2-1.2q-0.2 0-0.3 0.1c-7.2 1.9-18.5 1.3-26.5-6.4-4.4-4.3-8.8-11.9-8.2-25.1 1.6 13.7 6.1 22.8 13.5 27 4.3 2.4 9.3 3.2 14.1 2.3 2.6-0.4 5.3-1.2 7.7-2.4 0.5-0.3 0.7-0.9 0.5-1.4l-1.4-5.5 12.5 2.2z"></path></svg>