<svg xmlns="http://www.w3.org/2000/svg" viewBox="0 0 110 135" width="110" height="135"><style></style><path d="m19.7 95.2c-0.2 0.3-0.5 0.5-0.9 0.5q-0.3 0-0.5-0.2c-1.3-0.7-2.6-1.6-3.7-2.4-0.4-0.3-0.5-1-0.2-1.5 0.4-0.5 1.1-0.6 1.5-0.2 1.1 0.8 2.2 1.6 3.5 2.3 0.5 0.3 0.6 1 0.3 1.5zm7.2 2q-2-0.7-3.9-1.6c-0.5-0.2-1.1 0-1.4 0.5-0.3 0.5 0 1.2 0.5 1.4 1.3 0.6 2.6 1.2 4 1.7q0.2 0.1 0.4 0.1c0.4 0 0.8-0.3 1-0.7 0.2-0.5-0.1-1.2-0.6-1.4zm7.9 2.5q-2-0.5-4-1.1c-0.6-0.2-1.2 0.1-1.3 0.7-0.2 0.5 0.1 1.1 0.7 1.3q2 0.6 4.1 1.1 0.2 0.1 0.3 0.1c0.5 0 0.9-0.4 1-0.8 0.2-0.6-0.2-1.2-0.8-1.3zm-20-20.9c0-7.6 11.6-14 29-16l0.8-2.6h-1.9c-0.6 0-1.1-0.5-1.1-1.1 0-0.6 0.5-1 1.1-1h2.4l2.9-10.8c-1.1-1.4-1.8-3.2-1.8-5.1 0-3.1 1.6-5.8 4.1-7.3v-6.5c0-2.4 2-4.4 4.4-4.4 2.4 0 4.4 2 4.4 4.4v6.5c2.5 1.5 4.1 4.2 4.1 7.3 0 1.7-0.5 3.2-1.3 4.5l3 11.4h2.5c0.6 0 1.1 0.5 1.1 1.1 0 0.6-0.5 1-1.1 1h-1.9l0.7 2.6c17.5 2.1 29.1 8.5 29.1 16.1 0 9.3-17.7 16.6-40.2 16.6-22.7 0-40.3-7.3-40.3-16.7zm21.2-21.1q0.1 0 0.3-0.1 2-0.4 4.1-0.7c0.6-0.1 0.9-0.7 0.9-1.3-0.1-0.6-0.7-0.9-1.3-0.9q-2.1 0.4-4.2 0.9c-0.6 0.1-0.9 0.7-0.8 1.2 0.1 0.5 0.5 0.9 1 0.9zm-8.1 2.3q0.1 0 0.3-0.1 1.9-0.7 4-1.2c0.6-0.2 0.9-0.8 0.7-1.4-0.1-0.5-0.7-0.9-1.3-0.7q-2.1 0.6-4.1 1.3c-0.5 0.2-0.8 0.8-0.6 1.4 0.1 0.4 0.5 0.7 1 0.7zm-10.6 3.9c-0.3-0.5-1-0.6-1.4-0.3q-1.9 1.3-3.5 2.8c-0.4 0.4-0.4 1 0 1.5q0.3 0.3 0.7 0.3c0.3 0 0.6-0.1 0.8-0.2q1.4-1.4 3.2-2.6c0.5-0.3 0.6-1 0.2-1.5zm-6.9 21.7c-0.3-0.5-1-0.7-1.5-0.4-0.5 0.4-0.6 1-0.3 1.5 0.7 1.2 1.7 2.4 2.7 3.5q0.4 0.3 0.8 0.3 0.4 0 0.8-0.3c0.4-0.4 0.4-1.1 0-1.5q-1.5-1.5-2.5-3.1zm-2.6-10.6q0.2 0 0.4 0c0.4 0 0.8-0.2 1-0.6q0.7-1.8 1.9-3.5c0.4-0.4 0.3-1.1-0.2-1.4-0.5-0.4-1.1-0.3-1.5 0.2q-1.4 1.9-2.2 3.9c-0.2 0.5 0 1.2 0.6 1.4zm1 7q-0.5-1.6-0.5-3.2 0-0.3 0-0.6c0.1-0.6-0.4-1.1-1-1.2-0.5 0-1.1 0.4-1.1 1q0 0.4 0 0.8 0 1.9 0.5 3.8c0.1 0.4 0.6 0.7 1 0.7q0.2 0 0.3 0c0.6-0.2 0.9-0.7 0.8-1.3zm60.1-27.4c-0.6-0.1-1.2 0.3-1.2 0.9-0.1 0.6 0.3 1.1 0.9 1.2 19.5 2.9 33.1 12 33.1 22.1 0 12.8-20.9 23.2-46.7 23.2q-6.1 0-11.9-0.8l2.5-2.5c0.4-0.4 0.4-1.1 0-1.5-0.4-0.4-1.1-0.5-1.5 0l-4.5 4.5c-0.2 0.2-0.3 0.4-0.3 0.7q0 0.5 0.3 0.8l4.5 4.5q0.3 0.3 0.7 0.3 0.5 0 0.8-0.3c0.4-0.4 0.4-1.1 0-1.5l-2.9-2.9c4 0.5 8.2 0.8 12.3 0.8 26.9 0 48.8-11.3 48.8-25.3 0-11.3-14-21.1-34.9-24.2zm-48.8 8.8q0.2 0 0.5-0.2 1.7-0.9 3.7-1.8c0.6-0.2 0.8-0.8 0.6-1.4-0.3-0.5-0.9-0.8-1.4-0.5q-2.1 0.9-3.9 1.9c-0.6 0.2-0.8 0.9-0.5 1.4 0.2 0.4 0.6 0.6 1 0.6zm43.2-3.2h-2.7l4.4 16.2 1.6-3.9zm-4.9 0h-6.8l-0.5 2c2.7-0.1 5.1-0.1 7.8 0zm-4.2-9.5l-2 7.4h5.7l-2-7.5q-0.6 0.1-1.2 0.1c-0.2 0-0.3 0-0.5 0zm8.5 7.4l-2.5-9.4q-1 0.8-2.3 1.3l2.2 8.1zm-10.3-24.1q1.1-0.3 2.3-0.3 1.1 0 2.2 0.3v-5.6c0-1.2-1-2.2-2.2-2.2-1.3 0-2.3 1-2.3 2.2zm-4.1 8.2c0 3.5 2.9 6.4 6.4 6.4 3.5 0 6.3-2.9 6.3-6.4 0-3.5-2.8-6.3-6.3-6.3-3.5 0-6.4 2.8-6.4 6.3zm-1 15.9h2.7l2.1-7.8c-0.9-0.3-1.7-0.7-2.4-1.2zm-0.5 2.1l-3.3 12.3 1.6 3.9 4.3-16.2zm-29.7 17.6h20.7c0.6 0 1.1 0.5 1.1 1.1 0 0.6-0.5 1.1-1.1 1.1h-20.7c1.5 7.2 17.7 13.2 36.9 13.4v-8.3c0-0.6 0.5-1 1.1-1 0.6 0 1.1 0.4 1.1 1v8.3c19.2-0.2 35.4-6.2 36.9-13.5h-20.7c-0.6 0-1.1-0.5-1.1-1.1 0-0.6 0.5-1 1.1-1h20.6c-1.2-5.8-11.7-10.9-26.2-12.8l2 7.3q0.1 0.4-0.1 0.7l-2.9 7.1c-0.2 0.5-0.6 0.7-1 0.7h-0.1c-0.4 0-0.8-0.3-0.9-0.8l-4.2-15.6c-3.2-0.1-5.8-0.1-9.1 0l-4.2 15.6c-0.1 0.5-0.5 0.8-0.9 0.8h-0.1c-0.4 0-0.8-0.2-1-0.7l-2.9-7.1q-0.1-0.3 0-0.6l1.9-7.3c-14.4 1.8-25 7-26.2 12.7zm33.2-35.6c0-2.4 2-4.4 4.5-4.4 2.4 0 4.4 2 4.4 4.4 0 2.4-2 4.4-4.4 4.4-2.5 0-4.5-2-4.5-4.4zm2.2 0c0 1.3 1 2.3 2.2 2.3 1.3 0 2.3-1 2.3-2.3 0-1.2-1-2.2-2.3-2.2-1.2 0-2.2 1-2.2 2.2z"></path></svg>